<?xml version="1.0" encoding="UTF-8" standalone="no"?>
<!-- Created with Inkscape (http://www.inkscape.org/) -->

<svg
   width="32.212051mm"
   height="48.961494mm"
   viewBox="0 0 32.212051 48.961494"
   version="1.1"
   id="svg1"
   xml:space="preserve"
   inkscape:version="1.4.2 (f4327f4, 2025-05-13)"
   sodipodi:docname="chairdancer.svg"
   xmlns:inkscape="http://www.inkscape.org/namespaces/inkscape"
   xmlns:sodipodi="http://sodipodi.sourceforge.net/DTD/sodipodi-0.dtd"
   xmlns="http://www.w3.org/2000/svg"
   xmlns:svg="http://www.w3.org/2000/svg"><sodipodi:namedview
     id="namedview1"
     pagecolor="#ffffff"
     bordercolor="#000000"
     borderopacity="0.25"
     inkscape:showpageshadow="2"
     inkscape:pageopacity="0.0"
     inkscape:pagecheckerboard="0"
     inkscape:deskcolor="#d1d1d1"
     inkscape:document-units="mm"
     inkscape:zoom="0.65477694"
     inkscape:cx="-53.453318"
     inkscape:cy="379.51856"
     inkscape:window-width="1920"
     inkscape:window-height="974"
     inkscape:window-x="-11"
     inkscape:window-y="-11"
     inkscape:window-maximized="1"
     inkscape:current-layer="layer1" /><defs
     id="defs1" /><g
     inkscape:label="Layer 1"
     inkscape:groupmode="layer"
     id="layer1"
     transform="translate(-119.31717,-48.234239)"><path
       style="fill:#000000"
       d="m 133.83734,95.983695 c -0.10102,-1.50004 0.68318,-14.11042 0.92166,-14.82068 0.0987,-0.2939 0.0978,-0.52056 -0.002,-0.58237 -0.32658,-0.20183 -2.1612,-0.61801 -2.26565,-0.51395 -0.15324,0.15267 -0.4932,2.41411 -0.794,5.28165 -0.14248,1.3582 -0.34612,3.30289 -0.45254,4.32153 -0.10643,1.01865 -0.22846,1.9513 -0.27119,2.07257 -0.0915,0.25978 -0.55176,0.29387 -0.70128,0.0519 -0.0819,-0.13244 0.4868,-7.10301 1.05296,-12.90719 0.0781,-0.80107 0.0688,-0.81888 -0.48907,-0.93033 -0.3128,-0.0625 -1.39031,-0.51285 -2.39445,-1.0008 -1.00415,-0.48794 -1.95665,-0.86215 -2.11667,-0.83158 -0.22617,0.0432 -0.31731,0.34967 -0.40938,1.37653 -0.11071,1.23471 -0.72471,3.14472 -1.4812,4.6076 -0.1563,0.30225 -0.47547,1.18863 -0.70926,1.96974 -0.40038,1.33767 -0.40823,1.44591 -0.13498,1.86294 0.37807,0.57701 0.78977,5.66886 0.45835,5.66886 -0.16187,0 -0.51907,-1.10548 -0.67767,-2.09727 -0.19395,-1.21289 -0.6396,-0.84996 -0.93648,0.76265 -0.10598,0.57565 -0.19269,1.35152 -0.19269,1.72416 0,0.757 -0.27998,0.94581 -1.68884,1.13892 -0.82497,0.11307 -0.78627,0.16138 -1.13122,-1.41207 -0.17966,-0.81949 -0.16576,-0.87813 0.34631,-1.46135 0.29341,-0.33418 0.53348,-0.66941 0.53348,-0.74496 0,-0.89714 0.64103,-4.40065 1.06993,-5.84758 0.30194,-1.01865 0.65909,-2.48708 0.79367,-3.2632 0.13458,-0.77611 0.36575,-1.96673 0.51372,-2.64583 0.14797,-0.6791 0.28143,-1.35378 0.29659,-1.4993 0.0429,-0.41241 -0.21681,-0.88195 -0.48793,-0.88195 -0.33371,0 -0.32186,-0.0468 0.28346,-1.11936 0.29104,-0.5157 0.52917,-1.06694 0.52917,-1.22499 0,-0.15804 0.38632,-0.64871 0.85849,-1.09037 0.95721,-0.89536 2.68651,-3.32723 3.51549,-4.94375 0.40021,-0.78041 1.01567,-1.49646 2.34369,-2.72675 1.35837,-1.25839 1.90038,-1.8932 2.20547,-2.58307 0.52471,-1.18644 1.49788,-2.1174 2.61245,-2.49911 0.48976,-0.16773 1.28946,-0.5034 1.7771,-0.74593 0.74024,-0.36817 0.8942,-0.52834 0.93256,-0.97014 0.0755,-0.8696 -0.16239,-1.07037 -0.97859,-0.82583 -1.20613,0.36137 -1.58547,0.25753 -1.45806,-0.39912 0.0396,-0.20429 -0.328,-0.96115 -0.6653,-1.36968 -0.17198,-0.20829 -0.20544,-0.45382 -0.10816,-0.79375 0.0775,-0.2707 0.14894,-0.96843 0.15883,-1.55051 0.0256,-1.50632 0.71232,-2.94643 1.62344,-3.40446 1.12416,-0.56514 2.42087,-0.80353 3.11842,-0.57332 0.49903,0.1647 0.71643,0.14552 1.25348,-0.11059 0.58591,-0.2794 0.69623,-0.28387 1.12292,-0.0455 0.52421,0.29284 1.43277,1.80493 1.4392,2.39521 0.003,0.27274 -0.17651,0.45006 -0.64453,0.63673 -0.60615,0.24177 -0.6509,0.31176 -0.68277,1.0681 -0.0191,0.45349 -0.19924,1.08927 -0.40967,1.44592 -0.43618,0.73927 -0.47131,1.28497 -0.13372,2.07726 0.42026,0.98632 0.93663,1.29046 2.56736,1.5122 2.42407,0.3296 2.56121,0.53431 2.73517,4.08248 0.0595,1.21267 0.22368,2.80017 0.36494,3.52778 0.14127,0.7276 0.34918,2.39447 0.46203,3.70416 0.1902,2.20741 0.24044,2.41988 0.68811,2.91042 0.85587,0.93781 1.13043,1.88191 0.67868,2.33366 -0.14822,0.14822 -0.081,0.62107 0.26189,1.84326 0.62573,2.23011 0.8962,3.54283 1.26543,6.14183 0.17228,1.21267 0.51184,2.80017 0.75456,3.52778 0.51385,1.54031 0.75789,4.95128 0.40184,5.61656 -0.2649,0.49497 -1.38538,0.52476 -1.96879,0.0523 -0.36157,-0.29279 -0.40065,-0.45981 -0.36112,-1.54341 0.0653,-1.79052 0.0662,-1.76064 -0.11499,-3.86092 -0.18311,-2.12237 -0.17944,-2.11002 -1.3398,-4.51156 -0.44168,-0.91413 -0.93693,-2.21768 -1.10054,-2.89677 -0.16362,-0.6791 -0.3277,-1.34655 -0.36463,-1.48322 -0.0489,-0.18118 -0.20723,-0.11428 -0.58427,0.24695 l -0.51712,0.49543 0.34595,0.48584 c 0.42482,0.59661 0.44094,1.10494 0.0475,1.49834 -0.28028,0.28029 -0.27343,0.45514 0.1129,2.87892 0.22622,1.41928 0.83419,4.8476 1.35104,7.61849 0.96622,5.17998 1.05298,6.41782 0.44165,6.30147 -0.20917,-0.0398 -0.34393,-0.42642 -0.51011,-1.46344 -0.12421,-0.77514 -0.77905,-4.37181 -1.45521,-7.99261 -0.67615,-3.6208 -1.22936,-6.64344 -1.22936,-6.71698 0,-0.12951 -2.06995,0.23015 -2.2267,0.3869 -0.0428,0.0428 0.009,2.40092 0.11603,5.24032 0.19557,5.20982 0.16268,5.63833 -0.41577,5.41636 -0.20474,-0.0786 -0.27961,-0.70292 -0.36771,-3.06613 -0.0608,-1.63211 -0.15778,-3.97951 -0.21541,-5.21643 l -0.10479,-2.24896 -1.17095,-0.001 c -0.64403,-5.8e-4 -1.82008,-0.0516 -2.61345,-0.11336 l -1.44249,-0.1123 -0.0969,0.59843 c -0.0533,0.32913 -0.17487,1.86843 -0.27022,3.42065 -0.24143,3.93017 -0.71159,10.20092 -0.85855,11.45079 -0.17825,1.5161 -0.5041,1.45737 -0.60965,-0.10989 z m -0.30683,-23.07076 c 0.19099,-0.12343 0.0438,-0.16685 -0.52916,-0.15611 -0.65804,0.0123 -0.71836,0.039 -0.35278,0.15611 0.60133,0.19258 0.58394,0.19258 0.88194,0 z m -2.00596,-1.01424 c -0.0629,-0.55783 -0.20197,-1.62939 -0.30916,-2.38125 l -0.19491,-1.36701 h -0.75317 c -0.62742,0 -0.80594,0.081 -1.06924,0.48507 -0.17384,0.26678 -1.01641,1.16808 -1.87237,2.00288 -0.85596,0.8348 -1.5563,1.59683 -1.5563,1.6934 0,0.10132 1.13772,0.24841 2.68993,0.34776 1.47946,0.0947 2.80008,0.18594 2.9347,0.20277 0.19534,0.0244 0.2217,-0.1742 0.13052,-0.98362 z m 3.0247,-0.44097 c 0.0867,-0.41231 0.12633,-0.80919 0.0882,-0.88195 -0.10114,-0.19283 -2.47865,-0.16229 -2.59959,0.0334 -0.0563,0.0911 -0.0509,0.488 0.0121,0.88194 l 0.11454,0.71626 h 1.1136 1.11361 z m 10.75885,0.56094 c 0.29775,-0.1038 0.58356,-0.29871 0.63515,-0.43315 0.1697,-0.44222 -0.25288,-2.434 -0.80291,-3.78447 -0.36255,-0.89014 -0.57002,-1.7506 -0.63088,-2.61648 -0.0525,-0.74627 -0.15636,-1.2245 -0.24646,-1.1344 -0.20163,0.20163 -0.85471,2.48329 -0.85471,2.9861 0,0.30685 0.11786,0.39762 0.57326,0.44153 0.85194,0.0821 0.75768,0.56139 -0.13229,0.67264 -0.70074,0.0876 -0.70592,0.0938 -0.75886,0.915 -0.0377,0.58476 0.0601,1.04951 0.33417,1.5875 0.83962,1.64829 0.91539,1.70322 1.88353,1.36573 z m -10.54287,-2.99316 v -0.88881 l -1.54319,0.051 -1.5432,0.051 0.061,0.70556 c 0.0335,0.38805 0.0977,0.76508 0.14249,0.83784 0.0448,0.0728 0.71181,0.1323 1.48219,0.1323 h 1.4007 z m 0,-3.44741 c 0,-1.02673 -0.0636,-1.84033 -0.14125,-1.80799 -0.20135,0.0838 -2.39262,1.69354 -3.4416,2.52824 -1.3943,1.10947 -1.35309,1.14653 1.2751,1.14653 h 2.30775 z"
       id="path1" /></g></svg>
